<?xml version="1.0" standalone="no"?>
<!DOCTYPE svg PUBLIC "-//W3C//DTD SVG 20010904//EN"
 "http://www.w3.org/TR/2001/REC-SVG-20010904/DTD/svg10.dtd">
<svg version="1.0" xmlns="http://www.w3.org/2000/svg"
 width="274.000000pt" height="274.000000pt" viewBox="0 0 274.000000 274.000000"
 preserveAspectRatio="xMidYMid meet">
<metadata>
Created by potrace 1.11, written by Peter Selinger 2001-2013
</metadata>
<g transform="translate(0.000000,274.000000) scale(0.100000,-0.100000)"
fill="#000000" stroke="none">
<path d="M1248 2280 c-161 -27 -296 -162 -328 -327 l-13 -63 -233 0 c-131 0
-256 -5 -286 -11 -261 -54 -430 -314 -375 -575 35 -163 144 -291 307 -360 38
-16 79 -19 280 -24 l235 -5 6 -60 c13 -136 80 -251 189 -323 110 -74 92 -72
755 -72 663 0 645 -2 755 72 80 53 143 138 171 230 47 153 9 316 -101 432 -49
51 -137 107 -191 119 -24 6 -25 9 -21 66 3 35 -3 91 -13 136 l-16 75 26 32
c199 237 58 608 -252 658 -69 12 -827 11 -895 0z m282 -470 c224 -42 378 -258
339 -473 -45 -252 -290 -402 -532 -327 -168 52 -287 216 -287 396 0 156 96
307 236 371 87 40 158 49 244 33z"/>
<path d="M1364 1606 c-176 -82 -169 -336 11 -412 121 -51 269 20 305 147 24
81 3 156 -60 219 -72 73 -164 89 -256 46z"/>
</g>
</svg>
